<svg width="37" height="37" viewBox="0 0 37 37" fill="none" xmlns="http://www.w3.org/2000/svg">
<rect width="37" height="37" rx="6" fill="#3C3744"/>
<path fill-rule="evenodd" clip-rule="evenodd" d="M18.0296 7.70825C15.2123 7.70971 12.4875 8.70752 10.3423 10.5232C8.19702 12.339 6.77129 14.8542 6.31998 17.6192C5.86868 20.3843 6.42123 23.2187 7.87885 25.6159C9.33647 28.013 11.6041 29.8164 14.2763 30.7037C14.8658 30.8131 15.0878 30.4477 15.0878 30.137C15.0878 29.8264 15.076 28.9256 15.0721 27.9409C11.7708 28.654 11.0732 26.5477 11.0732 26.5477C10.5348 25.18 9.75658 24.8205 9.75658 24.8205C8.67972 24.0897 9.83716 24.1034 9.83716 24.1034C11.03 24.1874 11.6568 25.3207 11.6568 25.3207C12.714 27.1241 14.4335 26.6024 15.1094 26.2976C15.2156 25.5337 15.5241 25.0139 15.864 24.7189C13.2269 24.4219 10.4561 23.4098 10.4561 18.8885C10.4398 17.7159 10.8774 16.5819 11.6784 15.7212C11.5566 15.4242 11.1498 14.2245 11.7944 12.595C11.7944 12.595 12.7907 12.2784 15.0584 13.8044C17.0034 13.2755 19.0557 13.2755 21.0007 13.8044C23.2665 12.2784 24.2608 12.595 24.2608 12.595C24.9073 14.2206 24.5005 15.4203 24.3787 15.7212C25.1823 16.5821 25.6208 17.718 25.6029 18.8924C25.6029 23.4234 22.8263 24.4219 20.1852 24.713C20.6097 25.0804 20.989 25.7974 20.989 26.8994C20.989 28.4782 20.9752 29.7482 20.9752 30.137C20.9752 30.4516 21.1894 30.8189 21.7907 30.7037C24.4632 29.8163 26.731 28.0125 28.1886 25.615C29.6462 23.2175 30.1985 20.3826 29.7467 17.6173C29.2948 14.852 27.8684 12.3368 25.7225 10.5213C23.5765 8.70593 20.851 7.70879 18.0335 7.70825H18.0296Z" fill="#B4C5E4"/>
<path d="M10.6563 24.6504C10.6308 24.709 10.5365 24.7266 10.4598 24.6856C10.3832 24.6445 10.3262 24.5683 10.3537 24.5078C10.3812 24.4472 10.4736 24.4315 10.5502 24.4726C10.6269 24.5136 10.6858 24.5918 10.6563 24.6504Z" fill="#B4C5E4"/>
<path d="M11.1376 25.1838C11.097 25.2042 11.0504 25.2099 11.0059 25.1999C10.9615 25.19 10.9219 25.1649 10.894 25.1291C10.8173 25.0471 10.8016 24.9337 10.8606 24.8829C10.9195 24.8321 11.0256 24.8556 11.1023 24.9376C11.1789 25.0197 11.1966 25.133 11.1376 25.1838Z" fill="#B4C5E4"/>
<path d="M11.6055 25.8618C11.5328 25.9126 11.409 25.8618 11.3402 25.7602C11.3212 25.742 11.3061 25.7201 11.2958 25.696C11.2854 25.6718 11.2801 25.6458 11.2801 25.6195C11.2801 25.5933 11.2854 25.5673 11.2958 25.5431C11.3061 25.5189 11.3212 25.4971 11.3402 25.4788C11.4129 25.43 11.5367 25.4788 11.6055 25.5785C11.6743 25.6781 11.6763 25.811 11.6055 25.8618V25.8618Z" fill="#B4C5E4"/>
<path d="M12.2403 26.5184C12.1754 26.5906 12.0438 26.5711 11.9357 26.4734C11.8276 26.3757 11.802 26.2429 11.8669 26.1725C11.9317 26.1022 12.0634 26.1217 12.1754 26.2175C12.2874 26.3132 12.309 26.448 12.2403 26.5184V26.5184Z" fill="#B4C5E4"/>
<path d="M13.1303 26.9013C13.1008 26.9932 12.9672 27.0342 12.8336 26.9951C12.6999 26.956 12.6115 26.8466 12.6371 26.7528C12.6626 26.659 12.7982 26.6161 12.9338 26.6591C13.0694 26.702 13.1558 26.8056 13.1303 26.9013Z" fill="#B4C5E4"/>
<path d="M14.1012 26.9679C14.1012 27.0636 13.9912 27.1457 13.8497 27.1476C13.7082 27.1496 13.5923 27.0714 13.5923 26.9757C13.5923 26.88 13.7023 26.7979 13.8438 26.7959C13.9853 26.794 14.1012 26.8702 14.1012 26.9679Z" fill="#B4C5E4"/>
<path d="M15.0051 26.8173C15.0228 26.913 14.9245 27.0127 14.783 27.0361C14.6415 27.0595 14.5177 27.0029 14.5 26.9091C14.4824 26.8153 14.5845 26.7137 14.7221 26.6883C14.8596 26.6629 14.9874 26.7215 15.0051 26.8173Z" fill="#B4C5E4"/>
</svg>
