<svg width="37" height="37" viewBox="0 0 37 37" fill="none" xmlns="http://www.w3.org/2000/svg">
<path d="M9.38223 36.8691C7.18183 36.7691 5.98651 36.4029 5.19146 36.0928C4.13799 35.6826 3.38693 35.1944 2.59628 34.4048C1.80563 33.6153 1.31628 32.8642 0.908313 31.8107C0.598211 31.0157 0.232027 29.8204 0.131958 27.62C0.021993 25.2414 0 24.5277 0 18.5016C0 12.4756 0.0241923 11.763 0.130859 9.38223C0.230927 7.18183 0.599311 5.98871 0.907213 5.19146C1.31738 4.13799 1.80673 3.38693 2.59518 2.59518C3.38473 1.80563 4.13579 1.31518 5.19036 0.907213C5.98541 0.597111 7.18073 0.230927 9.38113 0.130859C11.7608 0.021993 12.4756 0 18.4995 0C24.5255 0 25.2381 0.0241923 27.6189 0.130859C29.8193 0.230927 31.0124 0.599311 31.8096 0.907213C32.8631 1.31518 33.6142 1.80563 34.4048 2.59518C35.1955 3.38473 35.6826 4.13689 36.0928 5.19036C36.4029 5.98541 36.7691 7.18073 36.8691 9.38113C36.978 11.7619 37 12.4745 37 18.5006C37 24.5244 36.978 25.2392 36.8691 27.62C36.7691 29.8204 36.4007 31.0157 36.0928 31.8107C35.6826 32.8642 35.1944 33.6153 34.4048 34.4048C33.6153 35.1944 32.8631 35.6826 31.8096 36.0928C31.0146 36.4029 29.8193 36.7691 27.6189 36.8691C25.2403 36.978 24.5255 37 18.4995 37C12.4756 37 11.7608 36.9791 9.38223 36.8691Z" fill="#3C3744"/>
<path d="M14.3022 18.369C14.3022 16.1227 16.1227 14.3013 18.369 14.3013C20.6153 14.3013 22.4367 16.1227 22.4367 18.369C22.4367 20.6153 20.6153 22.4368 18.369 22.4368C16.1227 22.4368 14.3022 20.6153 14.3022 18.369ZM12.1032 18.369C12.1032 21.8296 14.9084 24.6348 18.369 24.6348C21.8295 24.6348 24.6347 21.8296 24.6347 18.369C24.6347 14.9085 21.8295 12.1033 18.369 12.1033C14.9084 12.1033 12.1033 14.9083 12.1033 18.369M23.4186 11.8549C23.4184 12.1445 23.5042 12.4276 23.665 12.6685C23.8258 12.9093 24.0544 13.0971 24.3219 13.208C24.5895 13.319 24.8839 13.3481 25.1679 13.2917C25.452 13.2353 25.713 13.096 25.9178 12.8913C26.1227 12.6866 26.2622 12.4257 26.3189 12.1417C26.3755 11.8577 26.3466 11.5633 26.2359 11.2956C26.1252 11.028 25.9376 10.7993 25.6968 10.6383C25.4561 10.4773 25.173 10.3913 24.8834 10.3912H24.8828C24.4946 10.3914 24.1224 10.5456 23.8478 10.8201C23.5733 11.0945 23.4189 11.4667 23.4186 11.8549ZM13.4392 28.3015C12.2496 28.2473 11.6029 28.0492 11.1732 27.8818C10.6035 27.66 10.197 27.3958 9.76966 26.969C9.34229 26.5422 9.07774 26.1361 8.85693 25.5664C8.68942 25.1369 8.49125 24.4901 8.43717 23.3004C8.37802 22.0142 8.3662 21.6278 8.3662 18.3692C8.3662 15.1106 8.37899 14.7253 8.43717 13.438C8.49135 12.2484 8.69098 11.6028 8.85693 11.172C9.07872 10.6023 9.34288 10.1958 9.76966 9.76847C10.1965 9.3411 10.6025 9.07656 11.1732 8.85574C11.6027 8.68823 12.2496 8.49006 13.4392 8.43598C14.7255 8.37683 15.1118 8.36502 18.369 8.36502C21.6261 8.36502 22.0129 8.37761 23.3002 8.43618C24.4898 8.49036 25.1354 8.68999 25.5662 8.85594C26.1359 9.07675 26.5423 9.34188 26.9697 9.76867C27.3971 10.1955 27.6607 10.6025 27.8825 11.1722C28.05 11.6017 28.2481 12.2486 28.3022 13.4382C28.3614 14.7255 28.3732 15.1108 28.3732 18.3694C28.3732 21.628 28.3614 22.0133 28.3022 23.3006C28.248 24.4903 28.0489 25.1369 27.8825 25.5666C27.6607 26.1363 27.3965 26.5428 26.9697 26.9692C26.5429 27.3956 26.1359 27.6602 25.5662 27.8819C25.1366 28.0495 24.4898 28.2476 23.3002 28.3017C22.0139 28.3609 21.6276 28.3727 18.369 28.3727C15.1104 28.3727 14.7251 28.3609 13.4392 28.3017M13.3382 6.24065C12.0392 6.2998 11.1515 6.50578 10.3764 6.80742C9.57404 7.11892 8.89393 7.53682 8.2148 8.21488C7.53567 8.89294 7.11884 9.57314 6.80734 10.3764C6.5057 11.1521 6.29972 12.0393 6.24057 13.3383C6.18043 14.6393 6.16667 15.0553 6.16667 18.369C6.16667 21.6828 6.18043 22.0987 6.24057 23.3998C6.29972 24.6989 6.5057 25.586 6.80734 26.3616C7.11884 27.164 7.53576 27.8454 8.2148 28.5232C8.89383 29.201 9.57306 29.6183 10.3764 29.9307C11.153 30.2323 12.0392 30.4383 13.3382 30.4974C14.6399 30.5566 15.0552 30.5713 18.369 30.5713C21.6827 30.5713 22.0987 30.5576 23.3997 30.4974C24.6988 30.4383 25.5859 30.2323 26.3616 29.9307C27.1639 29.6183 27.844 29.2013 28.5231 28.5232C29.2023 27.8451 29.6182 27.164 29.9306 26.3616C30.2322 25.586 30.4392 24.6988 30.4974 23.3998C30.5565 22.0978 30.5703 21.6828 30.5703 18.369C30.5703 15.0553 30.5565 14.6393 30.4974 13.3383C30.4382 12.0392 30.2322 11.1516 29.9306 10.3764C29.6182 9.57412 29.2012 8.89401 28.5231 8.21488C27.8451 7.53575 27.1639 7.11892 26.3625 6.80742C25.5859 6.50578 24.6987 6.29883 23.4007 6.24065C22.0994 6.1812 21.6837 6.16675 18.3704 6.16675C15.0572 6.16675 14.6404 6.18051 13.3387 6.24065" fill="#B4C5E4"/>
</svg>
