<svg width="209" height="72" viewBox="0 0 209 72" fill="none" xmlns="http://www.w3.org/2000/svg">
<rect x="4" y="4" width="201" height="64" rx="28" fill="#B4C5E4" stroke="#3066BE" stroke-width="8"/>
<path d="M52.818 33.1562C52.7185 32.8106 52.5788 32.5052 52.3989 32.2401C52.219 31.9702 51.9988 31.7429 51.7384 31.5582C51.4827 31.3688 51.1892 31.2244 50.8577 31.125C50.531 31.0256 50.1688 30.9759 49.7711 30.9759C49.0277 30.9759 48.3743 31.1605 47.8108 31.5298C47.2521 31.8991 46.8165 32.4366 46.504 33.142C46.1915 33.8428 46.0353 34.6998 46.0353 35.7131C46.0353 36.7263 46.1892 37.5881 46.4969 38.2983C46.8047 39.0085 47.2403 39.5507 47.8037 39.9247C48.3672 40.294 49.0324 40.4787 49.7995 40.4787C50.4955 40.4787 51.0897 40.3556 51.5822 40.1094C52.0793 39.8584 52.4581 39.5057 52.7185 39.0511C52.9837 38.5966 53.1162 38.0592 53.1162 37.4389L53.7412 37.5312H49.9912V35.2159H56.0779V37.0483C56.0779 38.3267 55.808 39.4252 55.2682 40.3438C54.7285 41.2576 53.9851 41.9631 53.0381 42.4602C52.0912 42.9527 51.0069 43.1989 49.7853 43.1989C48.4216 43.1989 47.2237 42.8982 46.1915 42.2969C45.1593 41.6908 44.3544 40.8314 43.7768 39.7188C43.2038 38.6013 42.9174 37.2756 42.9174 35.7415C42.9174 34.5625 43.0878 33.5114 43.4287 32.5881C43.7744 31.66 44.2573 30.8741 44.8776 30.2301C45.4979 29.5862 46.2199 29.0961 47.0438 28.7599C47.8677 28.4238 48.7602 28.2557 49.7214 28.2557C50.5452 28.2557 51.3123 28.3764 52.0225 28.6179C52.7327 28.8546 53.3625 29.1908 53.9117 29.6264C54.4657 30.062 54.9179 30.5805 55.2682 31.1818C55.6186 31.7784 55.8435 32.4366 55.943 33.1562H52.818ZM63.3027 43.2131C62.1805 43.2131 61.2146 42.9858 60.405 42.5312C59.6 42.072 58.9798 41.4233 58.5442 40.5852C58.1086 39.7424 57.8907 38.7457 57.8907 37.5952C57.8907 36.473 58.1086 35.4882 58.5442 34.6406C58.9798 33.7931 59.5929 33.1326 60.3836 32.6591C61.1791 32.1856 62.1119 31.9489 63.1819 31.9489C63.9016 31.9489 64.5716 32.0649 65.1919 32.2969C65.8169 32.5241 66.3614 32.8674 66.8254 33.3267C67.2942 33.786 67.6587 34.3636 67.9192 35.0597C68.1796 35.7509 68.3098 36.5606 68.3098 37.4886V38.3196H59.0981V36.4446H65.4618C65.4618 36.009 65.3671 35.6231 65.1777 35.2869C64.9883 34.9508 64.7255 34.688 64.3893 34.4986C64.0579 34.3045 63.672 34.2074 63.2317 34.2074C62.7724 34.2074 62.3652 34.3139 62.0101 34.527C61.6597 34.7353 61.3851 35.017 61.1862 35.3722C60.9873 35.7225 60.8855 36.1132 60.8808 36.544V38.3267C60.8808 38.8665 60.9802 39.3329 61.1791 39.7259C61.3827 40.1188 61.6692 40.4219 62.0385 40.6349C62.4078 40.848 62.8458 40.9545 63.3524 40.9545C63.6886 40.9545 63.9963 40.9072 64.2757 40.8125C64.555 40.7178 64.7942 40.5758 64.993 40.3864C65.1919 40.197 65.3434 39.965 65.4476 39.6903L68.2459 39.875C68.1038 40.5473 67.8126 41.1345 67.3723 41.6364C66.9367 42.1335 66.3732 42.5218 65.6819 42.8011C64.9954 43.0758 64.2023 43.2131 63.3027 43.2131ZM76.0868 32.0909V34.3636H69.5172V32.0909H76.0868ZM71.0086 29.4773H74.0342V39.6477C74.0342 39.9271 74.0768 40.1449 74.1621 40.3011C74.2473 40.4527 74.3657 40.5592 74.5172 40.6207C74.6734 40.6823 74.8533 40.7131 75.0569 40.7131C75.199 40.7131 75.341 40.7012 75.4831 40.6776C75.6251 40.6491 75.734 40.6278 75.8098 40.6136L76.2856 42.8651C76.1341 42.9124 75.9211 42.9669 75.6464 43.0284C75.3718 43.0947 75.038 43.1349 74.645 43.1491C73.9158 43.1776 73.2766 43.0805 72.7274 42.858C72.1829 42.6354 71.7591 42.2898 71.4561 41.821C71.1531 41.3523 71.0039 40.7604 71.0086 40.0455V29.4773ZM82.6866 43V32.0909H85.7121V43H82.6866ZM84.2064 30.6847C83.7566 30.6847 83.3707 30.5355 83.0488 30.2372C82.7315 29.9342 82.5729 29.572 82.5729 29.1506C82.5729 28.7339 82.7315 28.3764 83.0488 28.0781C83.3707 27.7751 83.7566 27.6236 84.2064 27.6236C84.6563 27.6236 85.0398 27.7751 85.357 28.0781C85.679 28.3764 85.84 28.7339 85.84 29.1506C85.84 29.572 85.679 29.9342 85.357 30.2372C85.0398 30.5355 84.6563 30.6847 84.2064 30.6847ZM91.1613 36.6932V43H88.1358V32.0909H91.0193V34.0156H91.1471C91.3886 33.3812 91.7934 32.8793 92.3616 32.5099C92.9298 32.1359 93.6187 31.9489 94.4284 31.9489C95.186 31.9489 95.8465 32.1146 96.4099 32.446C96.9734 32.7775 97.4113 33.2509 97.7238 33.8665C98.0363 34.4773 98.1926 35.2064 98.1926 36.054V43H95.167V36.5938C95.1718 35.9261 95.0013 35.4053 94.6557 35.0312C94.31 34.6525 93.8342 34.4631 93.2281 34.4631C92.8209 34.4631 92.4611 34.5507 92.1486 34.7259C91.8408 34.901 91.5993 35.1567 91.4241 35.4929C91.2537 35.8243 91.1661 36.2244 91.1613 36.6932ZM111.009 32.0909V34.3636H104.439V32.0909H111.009ZM105.931 29.4773H108.956V39.6477C108.956 39.9271 108.999 40.1449 109.084 40.3011C109.169 40.4527 109.288 40.5592 109.439 40.6207C109.595 40.6823 109.775 40.7131 109.979 40.7131C110.121 40.7131 110.263 40.7012 110.405 40.6776C110.547 40.6491 110.656 40.6278 110.732 40.6136L111.208 42.8651C111.056 42.9124 110.843 42.9669 110.568 43.0284C110.294 43.0947 109.96 43.1349 109.567 43.1491C108.838 43.1776 108.199 43.0805 107.649 42.858C107.105 42.6354 106.681 42.2898 106.378 41.821C106.075 41.3523 105.926 40.7604 105.931 40.0455V29.4773ZM117.791 43.2131C116.688 43.2131 115.734 42.9787 114.929 42.5099C114.129 42.0365 113.511 41.3783 113.075 40.5355C112.64 39.688 112.422 38.7055 112.422 37.5881C112.422 36.4612 112.64 35.4763 113.075 34.6335C113.511 33.786 114.129 33.1278 114.929 32.6591C115.734 32.1856 116.688 31.9489 117.791 31.9489C118.895 31.9489 119.846 32.1856 120.646 32.6591C121.451 33.1278 122.072 33.786 122.507 34.6335C122.943 35.4763 123.161 36.4612 123.161 37.5881C123.161 38.7055 122.943 39.688 122.507 40.5355C122.072 41.3783 121.451 42.0365 120.646 42.5099C119.846 42.9787 118.895 43.2131 117.791 43.2131ZM117.806 40.8693C118.307 40.8693 118.726 40.7273 119.063 40.4432C119.399 40.1544 119.652 39.7614 119.823 39.2642C119.998 38.767 120.085 38.2012 120.085 37.5668C120.085 36.9323 119.998 36.3665 119.823 35.8693C119.652 35.3722 119.399 34.9792 119.063 34.6903C118.726 34.4015 118.307 34.2571 117.806 34.2571C117.299 34.2571 116.873 34.4015 116.527 34.6903C116.186 34.9792 115.928 35.3722 115.753 35.8693C115.583 36.3665 115.497 36.9323 115.497 37.5668C115.497 38.2012 115.583 38.767 115.753 39.2642C115.928 39.7614 116.186 40.1544 116.527 40.4432C116.873 40.7273 117.299 40.8693 117.806 40.8693ZM132.124 38.3551V32.0909H135.149V43H132.244V41.0185H132.131C131.885 41.6577 131.475 42.1714 130.902 42.5597C130.334 42.9479 129.64 43.142 128.821 43.142C128.092 43.142 127.45 42.9763 126.896 42.6449C126.342 42.3134 125.909 41.8423 125.597 41.2315C125.289 40.6207 125.133 39.8892 125.128 39.0369V32.0909H128.154V38.4972C128.158 39.1411 128.331 39.6501 128.672 40.0241C129.013 40.3982 129.47 40.5852 130.043 40.5852C130.407 40.5852 130.748 40.5024 131.065 40.3366C131.383 40.1662 131.638 39.9152 131.833 39.5838C132.031 39.2524 132.128 38.8428 132.124 38.3551ZM142.498 43.2131C141.381 43.2131 140.42 42.9763 139.615 42.5028C138.815 42.0246 138.199 41.3617 137.768 40.5142C137.342 39.6667 137.129 38.6913 137.129 37.5881C137.129 36.4706 137.344 35.4905 137.775 34.6477C138.211 33.8002 138.829 33.1397 139.629 32.6662C140.429 32.188 141.381 31.9489 142.484 31.9489C143.436 31.9489 144.269 32.1217 144.984 32.4673C145.699 32.813 146.265 33.2983 146.682 33.9233C147.098 34.5483 147.328 35.2822 147.371 36.125H144.515C144.435 35.5805 144.222 35.1425 143.876 34.8111C143.535 34.4749 143.088 34.3068 142.534 34.3068C142.065 34.3068 141.656 34.4347 141.305 34.6903C140.96 34.9413 140.69 35.3082 140.496 35.7912C140.301 36.2741 140.204 36.8589 140.204 37.5455C140.204 38.2415 140.299 38.8333 140.488 39.321C140.683 39.8087 140.955 40.1804 141.305 40.4361C141.656 40.6918 142.065 40.8196 142.534 40.8196C142.88 40.8196 143.19 40.7486 143.464 40.6065C143.744 40.4645 143.973 40.2585 144.153 39.9886C144.338 39.714 144.459 39.3849 144.515 39.0014H147.371C147.323 39.8348 147.096 40.5687 146.689 41.2031C146.286 41.8329 145.73 42.3253 145.02 42.6804C144.309 43.0355 143.469 43.2131 142.498 43.2131ZM152.333 36.6932V43H149.308V28.4545H152.248V34.0156H152.376C152.622 33.3717 153.02 32.8674 153.569 32.5028C154.118 32.1335 154.807 31.9489 155.636 31.9489C156.393 31.9489 157.054 32.1146 157.617 32.446C158.185 32.7727 158.626 33.2438 158.938 33.8594C159.256 34.4702 159.412 35.2017 159.407 36.054V43H156.382V36.5938C156.386 35.9214 156.216 35.3982 155.87 35.0241C155.529 34.6501 155.051 34.4631 154.435 34.4631C154.024 34.4631 153.659 34.5507 153.342 34.7259C153.029 34.901 152.783 35.1567 152.603 35.4929C152.428 35.8243 152.338 36.2244 152.333 36.6932ZM165.403 28.4545L165.126 38.6392H162.527L162.243 28.4545H165.403ZM163.826 43.1847C163.358 43.1847 162.955 43.0189 162.619 42.6875C162.283 42.3513 162.117 41.9489 162.122 41.4801C162.117 41.0161 162.283 40.6184 162.619 40.2869C162.955 39.9555 163.358 39.7898 163.826 39.7898C164.276 39.7898 164.672 39.9555 165.013 40.2869C165.353 40.6184 165.526 41.0161 165.531 41.4801C165.526 41.7926 165.443 42.0791 165.282 42.3395C165.126 42.5952 164.92 42.8011 164.665 42.9574C164.409 43.1089 164.13 43.1847 163.826 43.1847Z" fill="#3C3744"/>
</svg>
