<svg width="37" height="37" viewBox="0 0 37 37" fill="none" xmlns="http://www.w3.org/2000/svg">
<rect width="37" height="37" rx="6" fill="#3C3744"/>
<g clip-path="url(#clip0_12_360)">
<path d="M7.70834 10.5875C7.70834 9.89303 7.9514 9.32011 8.4375 8.86873C8.92361 8.41734 9.55556 8.19165 10.3333 8.19165C11.0972 8.19165 11.7153 8.41386 12.1875 8.85832C12.6736 9.31665 12.9167 9.91386 12.9167 10.65C12.9167 11.3166 12.6806 11.8722 12.2083 12.3166C11.7222 12.775 11.0833 13.0041 10.2917 13.0041H10.2708C9.50694 13.0041 8.8889 12.775 8.41667 12.3166C7.94444 11.8583 7.70834 11.2819 7.70834 10.5875ZM7.97917 28.8166V14.9H12.6042V28.8166H7.97917ZM15.1667 28.8166H19.7917V21.0458C19.7917 20.5597 19.8472 20.1847 19.9583 19.9208C20.1528 19.4486 20.4479 19.0493 20.8438 18.7229C21.2396 18.3965 21.7361 18.2333 22.3333 18.2333C23.8889 18.2333 24.6667 19.2819 24.6667 21.3791V28.8166H29.2917V20.8375C29.2917 18.7819 28.8056 17.2229 27.8333 16.1604C26.8611 15.0979 25.5764 14.5666 23.9792 14.5666C22.1875 14.5666 20.7917 15.3375 19.7917 16.8791V16.9208H19.7708L19.7917 16.8791V14.9H15.1667C15.1944 15.3444 15.2083 16.7264 15.2083 19.0458C15.2083 21.3653 15.1944 24.6222 15.1667 28.8166Z" fill="#B4C5E4"/>
</g>
<defs>
<clipPath id="clip0_12_360">
<rect width="21.5833" height="21.5833" fill="white" transform="translate(7.70834 7.70825)"/>
</clipPath>
</defs>
</svg>
